<?xml version="1.0" encoding="utf-8"?>
<!-- Generator: Adobe Illustrator 16.0.0, SVG Export Plug-In . SVG Version: 6.00 Build 0)  -->
<!DOCTYPE svg PUBLIC "-//W3C//DTD SVG 1.1//EN" "http://www.w3.org/Graphics/SVG/1.1/DTD/svg11.dtd">
<svg version="1.1" id="Layer_1" xmlns="http://www.w3.org/2000/svg" xmlns:xlink="http://www.w3.org/1999/xlink" x="0px" y="0px"
   width="300px" height="300px" viewBox="0 0 300 300" enable-background="new 0 0 300 300" xml:space="preserve">
<path fill="#2CAAE1" d="M250,87.974c-7.358,3.264-15.267,5.469-23.566,6.461c8.471-5.078,14.978-13.119,18.041-22.701
  c-7.929,4.703-16.71,8.117-26.057,9.957c-7.484-7.975-18.148-12.957-29.95-12.957c-22.66,0-41.033,18.371-41.033,41.031
  c0,3.216,0.363,6.348,1.062,9.351c-34.102-1.711-64.336-18.047-84.574-42.872c-3.532,6.06-5.556,13.108-5.556,20.628
  c0,14.236,7.244,26.795,18.254,34.153c-6.726-0.213-13.053-2.059-18.585-5.132c-0.004,0.171-0.004,0.343-0.004,0.516
  c0,19.88,14.144,36.464,32.915,40.234c-3.443,0.938-7.068,1.439-10.81,1.439c-2.644,0-5.214-0.258-7.72-0.736
  c5.222,16.301,20.375,28.165,38.331,28.495c-14.043,11.006-31.735,17.565-50.96,17.565c-3.312,0-6.578-0.194-9.788-0.574
  c18.159,11.643,39.727,18.437,62.899,18.437c75.473,0,116.746-62.524,116.746-116.747c0-1.779-0.04-3.548-0.119-5.309
  C237.543,103.429,244.499,96.202,250,87.974z"/>
</svg>
